<svg viewBox="0 0 100 100" width="100" height="100" xmlns="http://www.w3.org/2000/svg" role="img" aria-label="SafarSafe">
  <defs>
    <linearGradient id="ss-mark-gradient" x1="0" y1="0" x2="1" y2="1">
      <stop offset="0%" stop-color="#2563EB"/>
      <stop offset="52%" stop-color="#7C3AED"/>
      <stop offset="100%" stop-color="#EC4899"/>
    </linearGradient>
  </defs>
  <rect x="0" y="0" width="100" height="100" rx="27" fill="url(#ss-mark-gradient)"/>
  <rect x="0" y="0" width="100" height="100" rx="27" fill="white" fill-opacity="0.12"/>
  <path fill-rule="evenodd" clip-rule="evenodd" fill="white"
    d="M50 23 C36 23 25 34 25 48.5 C25 67 50 82 50 82 C50 82 75 67 75 48.5 C75 34 64 23 50 23 Z
       M50 57 C46 52.2 38 48.4 38 42.2 C38 38.6 40.8 36 44.1 36 C46.3 36 48.7 37.2 50 39.4 C51.3 37.2 53.7 36 55.9 36 C59.2 36 62 38.6 62 42.2 C62 48.4 54 52.2 50 57 Z"/>
</svg>
